<svg width="745" height="720" viewBox="0 0 745 720" fill="none" xmlns="http://www.w3.org/2000/svg">
<g id="clock">
<path id="Vector" d="M372.5 720C578.226 720 745 558.823 745 360C745 161.177 578.226 0 372.5 0C166.774 0 0 161.177 0 360C0 558.823 166.774 720 372.5 720Z" fill="url(#paint0_linear)"/>
<path id="Vector_2" d="M372.5 720C574.912 720 739 561.509 739 366C739 170.491 574.912 12 372.5 12C170.088 12 6 170.491 6 366C6 561.509 170.088 720 372.5 720Z" fill="#FF7F50"/>
<path id="Vector_3" d="M372.5 647C533.491 647 664 521.192 664 366C664 210.808 533.491 85 372.5 85C211.509 85 81 210.808 81 366C81 521.192 211.509 647 372.5 647Z" fill="#091022"/>
<path id="second-hand" d="M381 135H364V383H381V135Z" fill="#B92020"/>
<g id="Group" opacity="0.1">
<path id="Vector_4" opacity="0.1" d="M622.487 360.204H389.931V380.082H622.487V360.204Z" fill="black"/>
<path id="Vector_5" opacity="0.1" d="M225.745 285.833L216.197 303.443L362.524 377.457L372.071 359.848L225.745 285.833Z" fill="black"/>
<path id="Vector_6" opacity="0.1" d="M372.438 399.96C389.487 399.96 403.308 386.611 403.308 370.143C403.308 353.675 389.487 340.326 372.438 340.326C355.389 340.326 341.568 353.675 341.568 370.143C341.568 386.611 355.389 399.96 372.438 399.96Z" fill="black"/>
</g>
<path id="minute-hand" d="M622 356H390V376H622V356Z" fill="white"/>
<path id="hour-hand" d="M372.139 355.895L225.812 281.881L216.265 299.49L362.591 373.505L372.139 355.895Z" fill="white"/>
<path id="Vector_7" d="M372.5 396C389.345 396 403 382.569 403 366C403 349.431 389.345 336 372.5 336C355.655 336 342 349.431 342 366C342 382.569 355.655 396 372.5 396Z" fill="#0B1380"/>
<g id="Group_2" opacity="0.1">
<path id="Vector_8" opacity="0.1" d="M103.638 388.07C103.638 232.722 234.013 106.793 394.847 106.793C439.989 106.754 484.52 116.869 524.913 136.335C565.307 155.802 600.452 184.085 627.567 218.946C578.01 131.959 482.312 73 372.209 73C211.375 73 81.0003 198.929 81.0003 354.277C80.9057 415.305 101.455 474.692 139.52 523.401C115.914 481.944 103.569 435.384 103.638 388.07V388.07Z" fill="black"/>
</g>
</g>
<defs>
<linearGradient id="paint0_linear" x1="372.5" y1="720" x2="372.5" y2="0" gradientUnits="userSpaceOnUse">
<stop stop-color="#808080" stop-opacity="0.25"/>
<stop offset="0.54" stop-color="#808080" stop-opacity="0.12"/>
<stop offset="1" stop-color="#808080" stop-opacity="0.1"/>
</linearGradient>
</defs>
</svg>
